<svg width="80" height="80" viewBox="0 0 80 80" fill="none" xmlns="http://www.w3.org/2000/svg">
<rect width="80" height="80" rx="4" fill="#183563"/>
<path d="M48.3103 27.0903C52.4301 27.0659 67.5555 27.0786 70.999 27.0804C70.9997 28.3204 71.0008 29.5613 70.999 30.8013C67.0343 30.8049 63.0699 30.7958 59.1056 30.8058C59.1136 32.0195 59.1063 33.2342 59.1089 34.4469C61.8595 34.4478 64.6108 34.446 67.3622 34.4478C67.3629 35.6887 67.3629 36.9296 67.3622 38.1705C64.6108 38.1732 61.8595 38.1705 59.1089 38.1714V41.8171C63.0725 41.8181 67.0361 41.8144 70.9997 41.819V45.5371C65.8133 45.5417 60.6275 45.538 55.4406 45.539C54.3717 43.7896 53.3039 42.0401 52.2345 40.2916C53.7112 39.3109 54.8078 37.7591 55.224 36.0195C55.7094 34.0717 55.3342 31.9252 54.209 30.2691C52.968 28.3983 50.8166 27.1782 48.5864 27.1257C48.4922 27.1238 48.3982 27.1257 48.3103 27.0903Z" fill="white"/>
<path d="M9.00072 27.0814L15.0567 27.0794C15.0567 27.0794 16.7337 27.0467 17.5627 27.1827C19.9407 27.5308 22.1459 28.8922 23.5597 30.8555C24.8256 32.5859 25.4559 34.7776 25.3055 36.9259C25.173 39.0732 24.2562 41.1553 22.7798 42.7017C21.1261 44.4583 18.7669 45.5098 16.3674 45.5369C14.165 45.5415 11.2041 45.539 9.00072 45.5381C8.99974 39.3862 8.99974 33.2333 9.00072 27.0814ZM12.6751 30.8051C12.676 34.4752 12.6751 38.1463 12.676 41.8174C13.5937 41.8174 15.2716 41.818 16.1902 41.8162C16.7319 41.8153 17.2735 41.7392 17.792 41.5787C19.1681 41.159 20.3562 40.161 21.0214 38.8739C21.6499 37.6801 21.8137 36.248 21.478 34.9401C21.1727 33.7245 20.4376 32.6277 19.4421 31.8835C18.527 31.1929 17.3909 30.8076 16.2493 30.804C15.3101 30.804 13.6135 30.8033 12.6751 30.8052" fill="white"/>
<path d="M31.3728 27.0833C32.7051 27.0806 34.0382 27.0824 35.3704 27.0824C37.399 33.2344 39.434 39.3854 41.4588 45.5382C40.1248 45.54 38.7897 45.5391 37.4547 45.5391C37.1749 44.6997 36.8997 43.8577 36.6208 43.0184H30.1224C29.8454 43.8578 29.5684 44.698 29.2913 45.5382C27.9554 45.54 26.6204 45.5391 25.2854 45.5382C27.3102 39.3853 29.3461 33.2353 31.3728 27.0833ZM33.3717 33.1737C32.6987 35.214 32.0247 37.2535 31.3515 39.2938C32.6987 39.2948 34.0457 39.2948 35.3928 39.2938C34.7188 37.2535 34.0476 35.2131 33.3717 33.1737Z" fill="white"/>
<path d="M43.5403 30.765C45.1439 30.7623 46.7476 30.7641 48.3511 30.7641C49.1757 30.7614 49.9956 31.0705 50.617 31.6179C51.2834 32.1954 51.7218 33.0329 51.8104 33.9158C51.9019 34.7542 51.6809 35.6226 51.2016 36.3114C50.6797 37.0719 49.8526 37.6148 48.9492 37.7681C48.5944 37.8361 48.2329 37.8179 47.8737 37.8198C46.4295 37.8198 44.9845 37.8207 43.5413 37.8188C43.5395 35.4676 43.5402 33.1162 43.5402 30.7649" fill="white"/>
<path fill-rule="evenodd" clip-rule="evenodd" d="M43.541 41.4665V45.5381H51.2163L48.7366 41.4947L43.541 41.4665Z" fill="white"/>
<path d="M21.4373 49.2667C21.4727 49.2667 21.5058 49.284 21.5263 49.3131C21.5468 49.3423 21.5522 49.3796 21.5407 49.4135C21.2909 50.149 20.1802 53.4196 19.9978 53.9567C19.9825 54.0015 19.941 54.0314 19.8943 54.0314H18.8172C18.7705 54.0314 18.7289 54.0015 18.7138 53.9567C18.5313 53.4196 17.4206 50.149 17.1708 49.4135C17.1594 49.3796 17.1647 49.3423 17.1852 49.3131C17.2057 49.284 17.2389 49.2667 17.2742 49.2667H18.2676C18.3151 49.2667 18.3572 49.2977 18.3717 49.3436C18.5271 49.8332 19.3719 52.4958 19.3719 52.4958C19.3719 52.4958 20.216 49.8333 20.3712 49.3436C20.3857 49.2977 20.4279 49.2667 20.4754 49.2667H21.4373Z" fill="white"/>
<path d="M34.2603 53.921C34.2603 53.9504 34.2487 53.9785 34.2282 53.9993C34.2077 54.02 34.1799 54.0317 34.1509 54.0317H31.8343C31.8053 54.0317 31.7775 54.02 31.757 53.9993C31.7365 53.9785 31.7249 53.9504 31.7249 53.921V53.3105C31.7249 53.2812 31.7365 53.253 31.757 53.2322C31.7775 53.2114 31.8053 53.1997 31.8343 53.1997H32.4019V50.0982H31.8343C31.8053 50.0982 31.7775 50.0865 31.757 50.0657C31.7365 50.045 31.7249 50.0168 31.7249 49.9874V49.3777C31.7249 49.3484 31.7365 49.3202 31.757 49.2994C31.7775 49.2786 31.8053 49.2669 31.8343 49.2669H34.1509C34.1799 49.2669 34.2077 49.2786 34.2282 49.2994C34.2487 49.3201 34.2603 49.3483 34.2603 49.3777V49.9874C34.2603 50.0167 34.2487 50.0449 34.2282 50.0657C34.2077 50.0865 34.1799 50.0982 34.1509 50.0982H33.5841V53.1997H34.1509C34.1799 53.1997 34.2077 53.2114 34.2282 53.2322C34.2487 53.2529 34.2603 53.2811 34.2603 53.3105V53.921Z" fill="white"/>
<path d="M58.1844 54.0318C58.149 54.0318 58.1158 54.0146 58.0953 53.9856C58.0749 53.9566 58.0695 53.9194 58.0804 53.8856C58.3255 53.1514 59.4171 49.8813 59.5968 49.3424C59.6118 49.2974 59.6534 49.2671 59.7004 49.2671H60.8328C60.8799 49.2671 60.9214 49.2974 60.9364 49.3424C61.1162 49.8813 62.2078 53.1514 62.4525 53.8856C62.4638 53.9194 62.4583 53.9566 62.4379 53.9856C62.4171 54.0146 62.3843 54.0318 62.349 54.0318H61.3653C61.3172 54.0318 61.2748 54 61.2606 53.9534C61.191 53.7222 60.9904 53.0592 60.9904 53.0592H59.5111C59.5111 53.0592 59.3108 53.7222 59.2409 53.9534C59.227 54 59.1843 54.0318 59.1362 54.0318H58.1843H58.1844ZM60.7315 52.1952L60.2512 50.6241L59.7701 52.1952H60.7315Z" fill="white"/>
<path d="M48.427 49.2629C48.4562 49.2629 48.4839 49.2746 48.5047 49.2954C48.5251 49.3161 48.5365 49.3443 48.5365 49.3737V50.0661C48.5365 50.0955 48.5252 50.1236 48.5047 50.1445C48.4839 50.1652 48.4562 50.1769 48.427 50.1769H47.225V53.9204C47.225 53.9497 47.2133 53.9779 47.1928 53.9987C47.1724 54.0195 47.1447 54.0312 47.1155 54.0312H46.1505C46.1217 54.0312 46.0936 54.0195 46.0732 53.9987C46.0528 53.978 46.041 53.9498 46.041 53.9204V50.1769H44.8302C44.77 50.1769 44.7208 50.1274 44.7208 50.0661V49.3737C44.7208 49.3444 44.7324 49.3162 44.7529 49.2954C44.7736 49.2746 44.8014 49.2629 44.8302 49.2629H48.427Z" fill="white"/>
<path fill-rule="evenodd" clip-rule="evenodd" d="M58.6802 25.2308H57.2688C53.1221 20.2646 46.9221 17.1076 40 17.1076C33.0779 17.1076 26.8779 20.2646 22.7312 25.2308H21.3198C25.6598 19.6147 32.4178 16 40 16C47.5821 16 54.3402 19.6147 58.6802 25.2308Z" fill="#00BDFF"/>
<path fill-rule="evenodd" clip-rule="evenodd" d="M57.7685 55.8769C53.4285 60.8578 47.0717 63.9999 40 63.9999C32.9284 63.9999 26.5716 60.8578 22.2316 55.8769H23.7196C27.8299 60.2006 33.6068 62.8923 40 62.8923C46.3933 62.8923 52.1702 60.2006 56.2805 55.8769H57.7685Z" fill="#00BDFF"/>
</svg>
